<svg width="121" height="35" viewBox="0 0 121 35" fill="none" xmlns="http://www.w3.org/2000/svg">
<path d="M45.6378 24.2121V11.1212H50.8026C51.7955 11.1212 52.6413 11.3108 53.3402 11.6901C54.0391 12.0651 54.5717 12.5871 54.9382 13.2562C55.3089 13.9209 55.4943 14.688 55.4943 15.5573C55.4943 16.4266 55.3068 17.1937 54.9318 17.8584C54.5568 18.5232 54.0135 19.041 53.3018 19.4117C52.5945 19.7824 51.7379 19.9678 50.7322 19.9678H47.4403V17.7498H50.2848C50.8175 17.7498 51.2564 17.6582 51.6016 17.4749C51.951 17.2874 52.2109 17.0296 52.3814 16.7015C52.5561 16.3691 52.6435 15.9877 52.6435 15.5573C52.6435 15.1226 52.5561 14.7434 52.3814 14.4195C52.2109 14.0914 51.951 13.8378 51.6016 13.6589C51.2521 13.4756 50.8089 13.384 50.272 13.384H48.4055V24.2121H45.6378ZM61.5188 24.4039C60.5259 24.4039 59.6673 24.193 58.9428 23.7711C58.2227 23.3449 57.6665 22.7526 57.2745 21.9941C56.8825 21.2313 56.6864 20.3471 56.6864 19.3414C56.6864 18.3272 56.8825 17.4408 57.2745 16.6823C57.6665 15.9195 58.2227 15.3272 58.9428 14.9053C59.6673 14.4792 60.5259 14.2661 61.5188 14.2661C62.5117 14.2661 63.3683 14.4792 64.0884 14.9053C64.8129 15.3272 65.3711 15.9195 65.7631 16.6823C66.1552 17.4408 66.3512 18.3272 66.3512 19.3414C66.3512 20.3471 66.1552 21.2313 65.7631 21.9941C65.3711 22.7526 64.8129 23.3449 64.0884 23.7711C63.3683 24.193 62.5117 24.4039 61.5188 24.4039ZM61.5316 22.2945C61.9833 22.2945 62.3604 22.1667 62.663 21.911C62.9656 21.651 63.1935 21.2974 63.3469 20.8499C63.5046 20.4025 63.5835 19.8932 63.5835 19.3222C63.5835 18.7512 63.5046 18.242 63.3469 17.7945C63.1935 17.3471 62.9656 16.9934 62.663 16.7334C62.3604 16.4735 61.9833 16.3435 61.5316 16.3435C61.0756 16.3435 60.6921 16.4735 60.381 16.7334C60.0742 16.9934 59.842 17.3471 59.6843 17.7945C59.5309 18.242 59.4542 18.7512 59.4542 19.3222C59.4542 19.8932 59.5309 20.4025 59.6843 20.8499C59.842 21.2974 60.0742 21.651 60.381 21.911C60.6921 22.1667 61.0756 22.2945 61.5316 22.2945ZM68.1218 24.2121V14.3939H70.7617V16.107H70.864C71.043 15.4976 71.3434 15.0374 71.7653 14.7263C72.1871 14.411 72.6729 14.2533 73.2227 14.2533C73.359 14.2533 73.506 14.2618 73.6637 14.2789C73.8214 14.2959 73.9599 14.3194 74.0792 14.3492V16.7654C73.9513 16.727 73.7745 16.693 73.5487 16.6631C73.3228 16.6333 73.1161 16.6184 72.9286 16.6184C72.5281 16.6184 72.1701 16.7057 71.8548 16.8805C71.5437 17.0509 71.2965 17.2895 71.1133 17.5964C70.9343 17.9032 70.8448 18.2569 70.8448 18.6574V24.2121H68.1218ZM81.2015 14.3939V16.4394H75.2889V14.3939H81.2015ZM76.6312 12.0417H79.3542V21.1951C79.3542 21.4465 79.3926 21.6425 79.4693 21.7832C79.546 21.9195 79.6525 22.0154 79.7889 22.0708C79.9295 22.1262 80.0914 22.1539 80.2747 22.1539C80.4025 22.1539 80.5304 22.1432 80.6582 22.1219C80.786 22.0964 80.8841 22.0772 80.9522 22.0644L81.3805 24.0907C81.2441 24.1333 81.0524 24.1823 80.8052 24.2377C80.5581 24.2974 80.2576 24.3336 79.9039 24.3464C79.2477 24.3719 78.6724 24.2846 78.1781 24.0843C77.688 23.884 77.3066 23.5729 77.0339 23.151C76.7612 22.7292 76.627 22.1965 76.6312 21.553V12.0417ZM88.2551 14.3939V16.4394H82.1955V14.3939H88.2551ZM83.5826 24.2121V13.6844C83.5826 12.9728 83.7211 12.3826 83.998 11.9138C84.2793 11.4451 84.6628 11.0935 85.1486 10.8591C85.6344 10.6248 86.1863 10.5076 86.8042 10.5076C87.2218 10.5076 87.6032 10.5395 87.9483 10.6035C88.2978 10.6674 88.5577 10.7249 88.7282 10.776L88.2424 12.8215C88.1358 12.7874 88.0037 12.7555 87.8461 12.7256C87.6926 12.6958 87.535 12.6809 87.373 12.6809C86.9725 12.6809 86.6934 12.7746 86.5357 12.9621C86.378 13.1454 86.2992 13.4032 86.2992 13.7356V24.2121H83.5826ZM94.0032 24.4039C93.0103 24.4039 92.1516 24.193 91.4272 23.7711C90.707 23.3449 90.1509 22.7526 89.7589 21.9941C89.3668 21.2313 89.1708 20.3471 89.1708 19.3414C89.1708 18.3272 89.3668 17.4408 89.7589 16.6823C90.1509 15.9195 90.707 15.3272 91.4272 14.9053C92.1516 14.4792 93.0103 14.2661 94.0032 14.2661C94.9961 14.2661 95.8526 14.4792 96.5728 14.9053C97.2972 15.3272 97.8555 15.9195 98.2475 16.6823C98.6396 17.4408 98.8356 18.3272 98.8356 19.3414C98.8356 20.3471 98.6396 21.2313 98.2475 21.9941C97.8555 22.7526 97.2972 23.3449 96.5728 23.7711C95.8526 24.193 94.9961 24.4039 94.0032 24.4039ZM94.016 22.2945C94.4677 22.2945 94.8448 22.1667 95.1474 21.911C95.4499 21.651 95.6779 21.2974 95.8313 20.8499C95.989 20.4025 96.0678 19.8932 96.0678 19.3222C96.0678 18.7512 95.989 18.242 95.8313 17.7945C95.6779 17.3471 95.4499 16.9934 95.1474 16.7334C94.8448 16.4735 94.4677 16.3435 94.016 16.3435C93.56 16.3435 93.1765 16.4735 92.8654 16.7334C92.5586 16.9934 92.3263 17.3471 92.1687 17.7945C92.0153 18.242 91.9386 18.7512 91.9386 19.3222C91.9386 19.8932 92.0153 20.4025 92.1687 20.8499C92.3263 21.2974 92.5586 21.651 92.8654 21.911C93.1765 22.1667 93.56 22.2945 94.016 22.2945ZM103.329 11.1212V24.2121H100.606V11.1212H103.329ZM105.51 24.2121V14.3939H108.233V24.2121H105.51ZM106.878 13.1283C106.474 13.1283 106.126 12.9941 105.836 12.7256C105.551 12.4529 105.408 12.1269 105.408 11.7476C105.408 11.3726 105.551 11.0509 105.836 10.7824C106.126 10.5097 106.474 10.3733 106.878 10.3733C107.283 10.3733 107.628 10.5097 107.914 10.7824C108.204 11.0509 108.349 11.3726 108.349 11.7476C108.349 12.1269 108.204 12.4529 107.914 12.7256C107.628 12.9941 107.283 13.1283 106.878 13.1283ZM114.851 24.4039C113.858 24.4039 112.999 24.193 112.275 23.7711C111.555 23.3449 110.999 22.7526 110.607 21.9941C110.214 21.2313 110.018 20.3471 110.018 19.3414C110.018 18.3272 110.214 17.4408 110.607 16.6823C110.999 15.9195 111.555 15.3272 112.275 14.9053C112.999 14.4792 113.858 14.2661 114.851 14.2661C115.844 14.2661 116.7 14.4792 117.42 14.9053C118.145 15.3272 118.703 15.9195 119.095 16.6823C119.487 17.4408 119.683 18.3272 119.683 19.3414C119.683 20.3471 119.487 21.2313 119.095 21.9941C118.703 22.7526 118.145 23.3449 117.42 23.7711C116.7 24.193 115.844 24.4039 114.851 24.4039ZM114.864 22.2945C115.315 22.2945 115.692 22.1667 115.995 21.911C116.298 21.651 116.526 21.2974 116.679 20.8499C116.837 20.4025 116.915 19.8932 116.915 19.3222C116.915 18.7512 116.837 18.242 116.679 17.7945C116.526 17.3471 116.298 16.9934 115.995 16.7334C115.692 16.4735 115.315 16.3435 114.864 16.3435C114.408 16.3435 114.024 16.4735 113.713 16.7334C113.406 16.9934 113.174 17.3471 113.016 17.7945C112.863 18.242 112.786 18.7512 112.786 19.3222C112.786 19.8932 112.863 20.4025 113.016 20.8499C113.174 21.2974 113.406 21.651 113.713 21.911C114.024 22.1667 114.408 22.2945 114.864 22.2945Z" fill="black"/>
<path d="M25.1091 16.4545C26.3577 15.4089 27.1517 13.8384 27.1517 12.0824C27.1517 10.3265 26.3577 8.75596 25.1091 7.71036C25.2522 7.64106 25.3899 7.56586 25.5211 7.48436C26.3493 6.9694 27.3268 6.672 28.3738 6.672C31.3619 6.672 33.7842 9.09436 33.7842 12.0824C33.7842 15.0705 31.3619 17.4928 28.3738 17.4928C27.3268 17.4928 26.3493 17.1954 25.5211 16.6805C25.3899 16.599 25.2522 16.5238 25.1091 16.4545Z" fill="url(#paint0_linear_1_20)"/>
<path d="M23.6065 12.9342C24.165 11.4044 24.0674 9.64726 23.1894 8.12656C22.3114 6.60586 20.8385 5.64277 19.2344 5.36156C19.3237 5.23003 19.4053 5.09604 19.4781 4.95986C19.9379 4.09981 20.6358 3.35348 21.5425 2.82998C24.1303 1.33594 27.4393 2.22257 28.9333 4.81032C30.4273 7.39808 29.5407 10.7071 26.9529 12.2011C26.0462 12.7246 25.0509 12.9558 24.0762 12.924C23.9219 12.9189 23.765 12.9227 23.6065 12.9342Z" fill="url(#paint1_linear_1_20)"/>
<path d="M20.5447 10.6368C20.2635 9.03266 19.3004 7.55976 17.7797 6.68178C16.259 5.8038 14.5019 5.7062 12.9721 6.26471C12.9837 6.10617 12.9874 5.9493 12.9823 5.79498C12.9505 4.82025 13.1817 3.82497 13.7052 2.91823C15.1993 0.330477 18.5082 -0.556153 21.096 0.937887C23.6837 2.43193 24.5704 5.74088 23.0763 8.32866C22.5528 9.23536 21.8065 9.93326 20.9464 10.3931C20.8103 10.4659 20.6763 10.5475 20.5447 10.6368Z" fill="url(#paint2_linear_1_20)"/>
<path d="M16.7442 10.1781C15.6986 8.92946 14.1281 8.13546 12.3721 8.13546C10.6161 8.13546 9.04561 8.92946 8.00002 10.1781C7.93076 10.035 7.85554 9.89726 7.77401 9.76606C7.25907 8.93786 6.96167 7.96036 6.96167 6.91334C6.96167 3.92525 9.38399 1.50293 12.3721 1.50293C15.3602 1.50293 17.7825 3.92525 17.7825 6.91334C17.7825 7.96036 17.4851 8.93786 16.9702 9.76606C16.8886 9.89726 16.8134 10.035 16.7442 10.1781Z" fill="url(#paint3_linear_1_20)"/>
<path d="M13.2231 11.6809C11.6933 11.1224 9.93613 11.22 8.41542 12.0979C6.89471 12.9759 5.93162 14.4488 5.65042 16.0529C5.51889 15.9636 5.38489 15.882 5.24871 15.8092C4.38866 15.3494 3.64233 14.6515 3.11883 13.7448C1.62478 11.157 2.51141 7.84806 5.09917 6.354C7.68693 4.85995 10.9959 5.74658 12.49 8.33436C13.0135 9.24106 13.2447 10.2364 13.2128 11.2111C13.2078 11.3654 13.2115 11.5223 13.2231 11.6809Z" fill="url(#paint4_linear_1_20)"/>
<path d="M10.9247 14.7429C9.32056 15.0241 7.84767 15.9872 6.96969 17.5079C6.09171 19.0286 5.99411 20.7857 6.55263 22.3155C6.39407 22.3039 6.23718 22.3002 6.08284 22.3052C5.10812 22.3371 4.11284 22.1059 3.20611 21.5824C0.618349 20.0883 -0.268282 16.7794 1.22576 14.1916C2.7198 11.6039 6.02875 10.7172 8.61651 12.2113C9.52324 12.7348 10.2211 13.4811 10.6809 14.3411C10.7537 14.4773 10.8354 14.6113 10.9247 14.7429Z" fill="url(#paint5_linear_1_20)"/>
<path d="M10.4651 18.5436C9.21649 19.5892 8.42246 21.1597 8.42246 22.9156C8.42246 24.6716 9.21649 26.2421 10.4651 27.2877C10.322 27.3569 10.1843 27.4322 10.0531 27.5137C9.22493 28.0286 8.24739 28.326 7.20038 28.326C4.2123 28.326 1.78998 25.9037 1.78998 22.9156C1.78998 19.9275 4.2123 17.5052 7.20038 17.5052C8.24739 17.5052 9.22493 17.8026 10.0531 18.3176C10.1843 18.3991 10.322 18.4743 10.4651 18.5436Z" fill="url(#paint6_linear_1_20)"/>
<path d="M11.9674 22.0648C11.4088 23.5946 11.5064 25.3517 12.3844 26.8724C13.2624 28.3932 14.7353 29.3562 16.3394 29.6374C16.2501 29.769 16.1685 29.9031 16.0957 30.0393C15.6359 30.8993 14.938 31.6456 14.0313 32.1691C11.4435 33.6632 8.1346 32.7764 6.64056 30.1887C5.14651 27.6009 6.03315 24.2921 8.6209 22.798C9.52764 22.2745 10.5229 22.0433 11.4976 22.0752C11.6519 22.0802 11.8088 22.0764 11.9674 22.0648Z" fill="url(#paint7_linear_1_20)"/>
<path d="M15.0293 24.3633C15.3105 25.9674 16.2736 27.4403 17.7943 28.3182C19.315 29.1962 21.0722 29.2938 22.602 28.7353C22.5904 28.8939 22.5867 29.0507 22.5917 29.2051C22.6236 30.1798 22.3924 31.1751 21.8689 32.0818C20.3748 34.6696 17.0659 35.5562 14.4781 34.0621C11.8903 32.5681 11.0037 29.2592 12.4978 26.6714C13.0213 25.7647 13.7676 25.0668 14.6276 24.607C14.7638 24.5342 14.8978 24.4525 15.0293 24.3633Z" fill="url(#paint8_linear_1_20)"/>
<path d="M18.8301 24.8228C19.8757 26.0714 21.4462 26.8654 23.2022 26.8654C24.9582 26.8654 26.5287 26.0714 27.5743 24.8228C27.6435 24.9659 27.7187 25.1036 27.8003 25.2347C28.3152 26.0629 28.6126 27.0405 28.6126 28.0875C28.6126 31.0756 26.1903 33.4979 23.2022 33.4979C20.2141 33.4979 17.7918 31.0756 17.7918 28.0875C17.7918 27.0405 18.0892 26.0629 18.6041 25.2347C18.6857 25.1036 18.7609 24.9659 18.8301 24.8228Z" fill="url(#paint9_linear_1_20)"/>
<path d="M22.3514 23.3205C23.8812 23.879 25.6383 23.7814 27.159 22.9035C28.6797 22.0255 29.6428 20.5526 29.924 18.9485C30.0555 19.0377 30.1895 19.1194 30.3257 19.1922C31.1858 19.652 31.9321 20.3499 32.4556 21.2566C33.9497 23.8444 33.063 27.1533 30.4753 28.6474C27.8875 30.1414 24.5786 29.2548 23.0845 26.667C22.561 25.7603 22.3298 24.765 22.3616 23.7903C22.3667 23.636 22.363 23.4791 22.3514 23.3205Z" fill="url(#paint10_linear_1_20)"/>
<path d="M28.608 17.4878C28.6069 17.4897 28.6058 17.4916 28.6047 17.4935C27.7268 19.0142 26.2539 19.9773 24.6498 20.2585C24.739 20.3901 24.8207 20.5241 24.8935 20.6602C25.3533 21.5203 26.0512 22.2666 26.9579 22.7901C29.5457 24.2842 32.8546 23.3975 34.3487 20.8098C35.6295 18.5912 35.1606 15.8426 33.3701 14.162C32.5835 16.0497 30.7582 17.3962 28.608 17.4878Z" fill="url(#paint11_linear_1_20)"/>
<defs>
<linearGradient id="paint0_linear_1_20" x1="25.7865" y1="6.672" x2="25.7865" y2="17.4928" gradientUnits="userSpaceOnUse">
<stop stop-color="#25136D"/>
<stop offset="1" stop-color="#3D9BA2"/>
</linearGradient>
<linearGradient id="paint1_linear_1_20" x1="19.3019" y1="4.12361" x2="24.7123" y2="13.4948" gradientUnits="userSpaceOnUse">
<stop stop-color="#25136D"/>
<stop offset="1" stop-color="#3D9BA2"/>
</linearGradient>
<linearGradient id="paint2_linear_1_20" x1="12.4116" y1="5.15888" x2="21.7827" y2="10.5693" gradientUnits="userSpaceOnUse">
<stop stop-color="#25136D"/>
<stop offset="1" stop-color="#3D9BA2"/>
</linearGradient>
<linearGradient id="paint3_linear_1_20" x1="6.96167" y1="9.50056" x2="17.7825" y2="9.50056" gradientUnits="userSpaceOnUse">
<stop stop-color="#25136D"/>
<stop offset="1" stop-color="#3D9BA2"/>
</linearGradient>
<linearGradient id="paint4_linear_1_20" x1="4.41247" y1="15.9854" x2="13.7836" y2="10.575" gradientUnits="userSpaceOnUse">
<stop stop-color="#25136D"/>
<stop offset="1" stop-color="#3D9BA2"/>
</linearGradient>
<linearGradient id="paint5_linear_1_20" x1="5.44677" y1="22.876" x2="10.8572" y2="13.5049" gradientUnits="userSpaceOnUse">
<stop stop-color="#25136D"/>
<stop offset="1" stop-color="#3D9BA2"/>
</linearGradient>
<linearGradient id="paint6_linear_1_20" x1="9.78766" y1="28.326" x2="9.78766" y2="17.5052" gradientUnits="userSpaceOnUse">
<stop stop-color="#25136D"/>
<stop offset="1" stop-color="#3D9BA2"/>
</linearGradient>
<linearGradient id="paint7_linear_1_20" x1="16.2719" y1="30.8754" x2="10.8615" y2="21.5043" gradientUnits="userSpaceOnUse">
<stop stop-color="#25136D"/>
<stop offset="1" stop-color="#3D9BA2"/>
</linearGradient>
<linearGradient id="paint8_linear_1_20" x1="23.1625" y1="29.8412" x2="13.7914" y2="24.4307" gradientUnits="userSpaceOnUse">
<stop stop-color="#25136D"/>
<stop offset="1" stop-color="#3D9BA2"/>
</linearGradient>
<linearGradient id="paint9_linear_1_20" x1="28.6126" y1="25.5002" x2="17.7918" y2="25.5002" gradientUnits="userSpaceOnUse">
<stop stop-color="#25136D"/>
<stop offset="1" stop-color="#3D9BA2"/>
</linearGradient>
<linearGradient id="paint10_linear_1_20" x1="31.162" y1="19.016" x2="21.7909" y2="24.4264" gradientUnits="userSpaceOnUse">
<stop stop-color="#25136D"/>
<stop offset="1" stop-color="#3D9BA2"/>
</linearGradient>
<linearGradient id="paint11_linear_1_20" x1="30.1277" y1="12.1254" x2="24.7173" y2="21.4965" gradientUnits="userSpaceOnUse">
<stop stop-color="#25136D"/>
<stop offset="1" stop-color="#3D9BA2"/>
</linearGradient>
</defs>
</svg>
